<svg width="28px" height="28px" viewBox="0 0 28 28">
    <g stroke="none" stroke-width="1" fill="none" fill-rule="evenodd">
        <g transform="translate(-635.000000, -573.000000)" fill-rule="nonzero" fill="#000000">
            <g transform="translate(525.000000, 573.000000)">
                <g transform="translate(110.000000, 0.000000)">
                    <path d="M27.9788844,9.52510168 C27.9724744,9.49116594 27.9668184,9.4572302 27.9577689,9.42404858 C27.9521129,9.40406421 27.9453257,9.38521102 27.9389157,9.3656037 C27.9294891,9.33619273 27.9196854,9.30678176 27.9079965,9.27812492 C27.899701,9.25814053 27.8902745,9.23891029 27.8812249,9.21968004 C27.8684047,9.19253145 27.8552075,9.16575991 27.8401249,9.13974252 C27.8295672,9.12051226 27.8175011,9.10241321 27.8058121,9.08393709 C27.7895984,9.05905087 27.7730076,9.03454173 27.7549086,9.01078672 C27.7417114,8.99306472 27.7281371,8.97609685 27.7138086,8.95912898 C27.6949554,8.93650516 27.674594,8.91501252 27.6542326,8.89389695 C27.6383959,8.87806027 27.6225592,8.86222359 27.6059684,8.84676399 C27.5840987,8.82677961 27.5614748,8.80792642 27.5377199,8.78982736 C27.5196207,8.775876 27.5018988,8.76154758 27.4830456,8.74872741 C27.4762585,8.74382558 27.4702255,8.73816963 27.4630612,8.73364486 L14.6670257,0.202200435 C14.2631905,-0.0674001461 13.7364324,-0.0674001461 13.3325971,0.202200435 L0.53580759,8.73326779 C0.528643379,8.73779256 0.522987422,8.74344851 0.515823211,8.74835034 C0.496970024,8.76154758 0.479248027,8.77549893 0.461148967,8.78945029 C0.437771015,8.80792642 0.414770126,8.82677961 0.392900429,8.84600986 C0.376309624,8.86109241 0.360472946,8.87692909 0.345013332,8.89314282 C0.323897762,8.9142584 0.304290447,8.93575103 0.285060195,8.95837485 C0.270731773,8.97534272 0.257157478,8.99231059 0.243960246,9.01116378 C0.225861186,9.0349188 0.209270381,9.05905087 0.19305664,9.08431415 C0.181367664,9.10279028 0.169678688,9.12088933 0.158743839,9.14011958 C0.143661289,9.16613698 0.130464058,9.19290851 0.118020954,9.21930297 C0.108971424,9.23853323 0.0991677665,9.25814053 0.0912494277,9.27774785 C0.0795604514,9.3064047 0.0693797301,9.33581567 0.0599531364,9.36522664 C0.0535430526,9.38483396 0.0467559051,9.40406421 0.0414770126,9.4217862 C0.0328045464,9.45496781 0.0263944625,9.48852649 0.0203614425,9.52283929 C0.0169678688,9.54018423 0.0128201675,9.55715209 0.010557785,9.57487408 C0.00377063751,9.62690889 2.84217094e-14,9.67894368 2.84217094e-14,9.73210967 L2.84217094e-14,18.2650624 C2.84217094e-14,18.3178512 0.00377063751,18.3706402 0.0113119125,18.4222979 C0.0139513588,18.4411511 0.0188531875,18.4562337 0.022623825,18.4743327 C0.028656845,18.5082685 0.0339357376,18.5422042 0.0452476501,18.57614 C0.0505265426,18.5949932 0.0565595626,18.6138463 0.0641008376,18.6345848 C0.0735274314,18.6647499 0.0829540251,18.694915 0.0942659377,18.7224407 C0.102184276,18.7412939 0.113119125,18.7601471 0.1206604,18.7790003 C0.133103504,18.8053947 0.147054863,18.8317892 0.162137413,18.8593148 C0.172695198,18.878168 0.184761238,18.8970212 0.19607315,18.9143661 C0.212286891,18.9407606 0.230008888,18.9633845 0.248862075,18.9860082 C0.262059306,19.0048614 0.275256538,19.019944 0.290339088,19.0380431 C0.30956934,19.0606668 0.328045464,19.0832907 0.350669289,19.1032751 C0.366128902,19.1183577 0.380834389,19.1372109 0.399687576,19.1485227 C0.421557274,19.1673759 0.444935226,19.1862291 0.467559051,19.2058365 C0.485658111,19.2209189 0.505265426,19.2322308 0.520347976,19.2469364 C0.527512187,19.250707 0.531659889,19.2582483 0.539201164,19.2616419 L13.3325971,27.797234 C13.5347033,27.932977 13.7662205,28.0008484 14,27.9997172 C14.2337795,27.998586 14.4652967,27.9318457 14.6674029,27.797234 L27.4641924,19.2661666 C27.4713566,19.2616419 27.4773896,19.256363 27.4841768,19.2514611 C27.50303,19.2382638 27.520752,19.2243125 27.538851,19.2103612 C27.562229,19.191885 27.5852299,19.1726548 27.6070996,19.1530475 C27.6236904,19.138342 27.639527,19.1221283 27.6553637,19.1062915 C27.6761022,19.085176 27.6960866,19.0636834 27.7149398,19.0410595 C27.7292682,19.0240917 27.7428425,19.0071238 27.7560397,18.9890248 C27.7741388,18.9652697 27.7907296,18.9407606 27.8069434,18.9158744 C27.8186323,18.8977753 27.8303213,18.8792992 27.8412562,18.8608231 C27.8563387,18.8344286 27.869536,18.8076571 27.8823561,18.7805085 C27.8914056,18.7612783 27.9008322,18.742048 27.9091276,18.7224407 C27.9208167,18.6934068 27.9306203,18.6639958 27.9400469,18.6345848 C27.946457,18.6149775 27.953244,18.5957473 27.9589,18.57614 C27.9675725,18.5429583 27.9736055,18.5090225 27.9800157,18.4750869 C27.9830321,18.457742 27.9875568,18.4407741 27.9894422,18.423052 C27.9962294,18.3710172 28,18.3189825 28,18.2658165 L28,9.73437206 C28,9.68120606 27.9958523,9.62917127 27.9894422,9.57713647 C27.9864257,9.55866034 27.9807698,9.54357779 27.9769991,9.52510168 L27.9788844,9.52510168 Z M13.999623,16.8461715 L9.74445851,14.0000943 L13.999623,11.15364 L18.2551644,14.0000943 L13.999623,16.8461715 L13.999623,16.8461715 Z M12.7967896,9.06357564 L7.58048965,12.5525466 L3.36981874,9.73588031 L12.7967896,3.45135877 L12.7967896,9.06357564 L12.7967896,9.06357564 Z M5.41652078,13.9997172 L2.40679793,16.0128606 L2.40679793,11.9865738 L5.41652078,13.9997172 L5.41652078,13.9997172 Z M7.58048965,15.4483961 L12.7967896,18.93699 L12.7967896,24.5492068 L3.36981874,18.2639311 L7.58048965,15.447642 L7.58048965,15.4483961 Z M15.2028334,18.9362358 L20.4191333,15.447642 L24.6301813,18.2639311 L15.2028334,24.5484527 L15.2028334,18.9362358 L15.2028334,18.9362358 Z M22.5831022,14.0004713 L25.593202,11.9869509 L25.593202,16.0136146 L22.5831022,13.9997172 L22.5831022,14.0004713 Z M20.4191333,12.5525466 L15.2028334,9.0639527 L15.2028334,3.45135877 L24.6301813,9.73588031 L20.4191333,12.5525466 L20.4191333,12.5525466 Z"></path>
                </g>
            </g>
        </g>
    </g>
</svg>