<svg width="30px" height="22px" viewBox="0 0 30 22">
    <g stroke="none" stroke-width="1" fill="none" fill-rule="evenodd">
        <g transform="translate(-525.000000, -576.000000)" fill-rule="nonzero" fill="#030104">
            <g transform="translate(525.000000, 573.000000)">
                <g transform="translate(0.000000, 3.000000)">
                    <path d="M15,15.4 L11.2885714,12.0648 L0.677142857,21.4038 C1.06285714,21.7712 1.58357143,22 2.15785714,22 L27.8421429,22 C28.4142857,22 28.9328571,21.7712 29.3164286,21.4038 L18.7114286,12.0648 L15,15.4 Z"></path>
                    <path d="M29.3228571,0.5962 C28.9371429,0.2266 28.4185714,0 27.8421429,0 L2.15785714,0 C1.58571429,0 1.06714286,0.2288 0.681428571,0.6006 L15,13.2 L29.3228571,0.5962 Z"></path>
                    <polygon points="0 1.9316 0 20.2092 10.3564286 11.1738"></polygon>
                    <polygon points="19.6435714 11.1738 30 20.2092 30 1.925"></polygon>
                </g>
            </g>
        </g>
    </g>
</svg>