<svg width="27px" height="26px" viewBox="0 0 27 26">
    <g stroke="none" stroke-width="1" fill="none" fill-rule="evenodd">
        <g transform="translate(-600.000000, -573.000000)" fill-rule="nonzero" fill="#161614">
            <g transform="translate(525.000000, 573.000000)">
                <g transform="translate(75.000000, 0.000000)">
                    <path d="M13.5001118,0 C6.0451832,0 0,5.9598962 0,13.3121102 C0,19.1937492 3.86819294,24.1836964 9.23220039,25.9439335 C9.90689298,26.067161 10.1545933,25.6551532 10.1545933,25.3035466 C10.1545933,24.9861087 10.1420741,23.9374615 10.1362616,22.8251063 C6.3805175,23.6303844 5.58801078,21.25445 5.58801078,21.25445 C4.97390186,19.7157582 4.08906647,19.306616 4.08906647,19.306616 C2.86420203,18.4803958 4.18139514,18.4973698 4.18139514,18.4973698 C5.53703997,18.5912785 6.2508549,19.8691865 6.2508549,19.8691865 C7.4549286,21.904316 9.40903333,21.3159537 10.179408,20.9758101 C10.3005755,20.1154212 10.650441,19.5281611 11.0365224,19.1957331 C8.03796318,18.8591166 4.88582075,17.717663 4.88582075,12.616833 C4.88582075,11.1634525 5.4131898,9.97592629 6.27678742,9.04367294 C6.13661767,8.70837918 5.67452702,7.35441845 6.4075678,5.52077381 C6.4075678,5.52077381 7.5412213,5.16299486 10.1210598,6.88531579 C11.1979301,6.5903631 12.3528214,6.44244587 13.5001118,6.43737569 C14.6474022,6.44244587 15.8031877,6.5903631 16.8820699,6.88531579 C19.4587787,5.16299486 20.5908672,5.52077381 20.5908672,5.52077381 C21.3256966,7.35441845 20.8633823,8.70837918 20.7232125,9.04367294 C21.5888222,9.97592629 22.1126143,11.1634525 22.1126143,12.616833 C22.1126143,17.7297874 18.9544359,18.8555897 15.9482757,19.1851519 C16.4324985,19.5982621 16.8639619,20.4083899 16.8639619,21.6503657 C16.8639619,23.431545 16.848313,24.8650855 16.848313,25.3035466 C16.848313,25.6577985 17.0913185,26.0728926 17.775624,25.9421699 C23.1367252,24.1799487 27,19.1917652 27,13.3121102 C27,5.9598962 20.9557111,0 13.5001118,0 Z M5.05623086,18.963382 C5.02649787,19.0295149 4.92097934,19.0493548 4.82485019,19.0039436 C4.72693256,18.9605162 4.67193776,18.8703551 4.70368274,18.8040018 C4.73274503,18.7358849 4.83848712,18.7169268 4.93618116,18.7625585 C5.03432236,18.8059857 5.0902114,18.8970287 5.05623086,18.963382 Z M5.72028636,19.5476584 C5.65590218,19.6065167 5.53004005,19.5791818 5.44464157,19.4861549 C5.35633687,19.3933484 5.33979372,19.269239 5.40507212,19.2094989 C5.4714683,19.1506406 5.59353001,19.178196 5.68205826,19.2710025 C5.77036292,19.3649112 5.78757676,19.4881388 5.72028636,19.5476584 Z M6.17585357,20.2952201 C6.0931378,20.351874 5.9578863,20.2987471 5.87427627,20.1803694 C5.79156047,20.0619915 5.79156047,19.9200262 5.87606474,19.8631519 C5.95989827,19.8062776 6.0931378,19.8574204 6.17786558,19.9749165 C6.26035784,20.0952783 6.26035784,20.2372435 6.17585357,20.2952201 Z M6.94631523,21.1610021 C6.87231813,21.241464 6.71471103,21.2198605 6.599356,21.11008 C6.48131835,21.0027241 6.44845558,20.850398 6.52267625,20.7699363 C6.59756756,20.6892542 6.7560689,20.7119598 6.87231813,20.8208587 C6.98946159,20.927994 7.02523058,21.0814223 6.94631523,21.1610021 Z M7.94206214,21.4532804 C7.90942297,21.5575499 7.75762829,21.6049451 7.60471584,21.5606361 C7.45202696,21.5150045 7.35209734,21.3928791 7.3829481,21.2875074 C7.41469307,21.1825766 7.56715839,21.1331973 7.72118862,21.1805925 C7.87365395,21.2260038 7.97380715,21.3472474 7.94206214,21.4532804 Z M9.07526394,21.5772572 C9.07906436,21.6870377 8.94940176,21.7780807 8.78888843,21.7800648 C8.62748086,21.7835919 8.49692405,21.6947534 8.49513559,21.5867363 C8.49513559,21.4758535 8.62189194,21.3856923 8.78329952,21.383047 C8.94381288,21.3799608 9.07526394,21.4681379 9.07526394,21.5772572 Z M10.1885077,21.5351784 C10.2077335,21.6423138 10.096179,21.7523147 9.93678342,21.7816336 C9.78007054,21.8098503 9.63498255,21.7437174 9.61508605,21.637464 C9.59563668,21.5276833 9.70920323,21.4176823 9.86569256,21.3892453 C10.0253117,21.3619103 10.1681641,21.4262796 10.1885077,21.5351784 Z"></path>
                </g>
            </g>
        </g>
    </g>
</svg>