<?xml version="1.0" encoding="UTF-8"?>
<svg width="304px" height="289px" viewBox="0 0 304 289" version="1.1" xmlns="http://www.w3.org/2000/svg" xmlns:xlink="http://www.w3.org/1999/xlink">
    <!-- Generator: Sketch 43.2 (39069) - http://www.bohemiancoding.com/sketch -->
    <title>LinkedIn__x28_alt_x29_</title>
    <desc>Created with Sketch.</desc>
    <defs></defs>
    <g id="Page-1" stroke="none" stroke-width="1" fill="none" fill-rule="evenodd">
        <g id="linkedin-logo" fill-rule="nonzero" fill="#000000">
            <path d="M69.4,288.038 L4.413,288.038 L4.413,93.845 L69.4,93.845 L69.4,288.038 Z M36.913,67.315 L36.476,67.315 C14.683,67.315 0.556,52.411 0.556,33.752 C0.556,14.717 15.098,0.217 37.323,0.217 C59.55,0.217 73.222,14.713 73.654,33.752 C73.654,52.415 59.555,67.315 36.913,67.315 Z M303.659,288.038 L238.693,288.038 L238.693,184.138 C238.693,158.031 229.28,140.217 205.786,140.217 C187.813,140.217 177.144,152.235 172.459,163.838 C170.723,167.982 170.293,173.778 170.293,179.566 L170.293,288.034 L105.339,288.034 C105.339,288.034 106.189,112.055 105.339,93.842 L170.303,93.842 L170.303,121.373 C178.927,108.144 194.338,89.273 228.837,89.273 C271.597,89.273 303.659,117.012 303.659,176.687 L303.659,288.038 Z" id="LinkedIn__x28_alt_x29_"></path>
        </g>
    </g>
</svg>