<svg width="26px" height="26px" viewBox="0 0 26 26">
  <g stroke="none" stroke-width="1" fill="none" fill-rule="evenodd">
    <g transform="translate(-566.000000, -574.000000)">
      <g transform="translate(525.000000, 573.000000)">
        <g transform="translate(41.000000, 1.000000)">
          <path d="M24.0306961,0 L1.91724362,0 C0.858361949,0 0.000120649653,0.832060325 0.000120649653,1.85903016 L0.000120649653,24.0869791 C0.000120649653,25.1140093 0.858663573,25.9467935 1.91724362,25.9467935 L24.0306961,25.9467935 C25.0893364,25.9467935 25.9466125,25.1134664 25.9466125,24.0869791 L25.9466125,1.85903016 C25.9466125,0.832361949 25.0893364,0 24.0306961,0 Z" fill="#000000" fill-rule="nonzero"></path>
          <polygonfill="#FFFFFF" points="7.86635731 21.7192297 3.94602784 21.7192297 3.94602784 10.0045708 7.86635731 10.0045708"></polygon>
          <path d="M5.90658469,8.40415313 L5.88022274,8.40415313 C4.56556381,8.40415313 3.71335499,7.50507193 3.71335499,6.379471 C3.71335499,5.23118794 4.59059861,4.35647796 5.93131787,4.35647796 C7.27215777,4.35647796 8.09691879,5.23094664 8.12297912,6.379471 C8.12297912,7.50531323 7.2724594,8.40415313 5.90658469,8.40415313 Z" fill="#FFFFFF"></path>
          <path d="M21.9979907,21.7192297 L18.0789281,21.7192297 L18.0789281,15.4514803 C18.0789281,13.87658 17.5110905,12.8019536 16.093819,12.8019536 C15.0096009,12.8019536 14.3659954,13.5269374 14.0833735,14.2268863 C13.9786497,14.4768724 13.95271,14.8265151 13.95271,15.1756752 L13.95271,21.7189884 L10.0343712,21.7189884 C10.0343712,21.7189884 10.0856473,11.1030858 10.0343712,10.0043898 L13.9533132,10.0043898 L13.9533132,11.6651926 C14.4735545,10.8671555 15.4032204,9.72876566 17.4843666,9.72876566 C20.0638561,9.72876566 21.9979907,11.402116 21.9979907,15.002 L21.9979907,21.7192297 Z" fill="#FFFFFF"></path>
        </g>
      </g>
    </g>
  </g>
</svg>