<?xml version="1.0" standalone="no"?>
<!DOCTYPE svg PUBLIC "-//W3C//DTD SVG 20010904//EN"
 "http://www.w3.org/TR/2001/REC-SVG-20010904/DTD/svg10.dtd">
<svg version="1.0" xmlns="http://www.w3.org/2000/svg"
 width="1343.000000pt" height="1343.000000pt" viewBox="0 0 1343.000000 1343.000000"
 preserveAspectRatio="xMidYMid meet">
<metadata>
Created by potrace 1.11, written by Peter Selinger 2001-2013
</metadata>
<g transform="translate(0.000000,1343.000000) scale(0.100000,-0.100000)"
fill="#000000" stroke="none">
<path d="M6981 11965 c-18 -8 -36 -13 -41 -10 -4 2 -18 -7 -30 -20 -13 -14
-28 -25 -33 -25 -5 0 -25 -13 -44 -30 -18 -16 -42 -30 -51 -30 -24 0 -92 -58
-92 -78 -1 -25 -38 -65 -54 -59 -7 3 -19 0 -25 -6 -7 -7 -11 -7 -11 -1 0 6
-13 9 -30 6 -38 -5 -32 -13 17 -21 40 -7 56 -29 27 -37 -11 -3 -26 -20 -35
-37 -9 -19 -23 -32 -35 -32 -10 0 -23 -4 -27 -10 -5 -6 -7 -3 -3 7 3 12 -7 27
-31 47 -25 21 -34 35 -30 48 33 107 35 119 14 120 -16 2 -18 -3 -14 -25 6 -31
-26 -74 -49 -65 -16 6 -19 -18 -3 -34 10 -10 -15 -92 -34 -104 -5 -3 -8 -9 -8
-13 4 -29 -2 -48 -21 -66 -18 -17 -31 -20 -63 -16 -64 9 -121 9 -134 2 -6 -4
-11 -2 -11 4 0 6 14 13 30 17 17 3 30 10 30 15 0 6 14 8 30 6 20 -3 30 0 30 9
0 7 -9 13 -20 13 -11 0 -20 6 -20 13 0 8 -4 7 -10 -3 -5 -8 -10 -11 -10 -6 0
4 -12 1 -26 -9 -17 -11 -36 -14 -57 -11 -29 6 -30 5 -7 -4 l24 -11 -29 -19
c-33 -22 -55 -26 -55 -10 0 6 7 10 15 10 16 0 19 9 7 27 -5 8 -15 8 -40 -2
-33 -14 -43 -35 -17 -35 8 0 15 -8 15 -17 0 -10 -4 -14 -8 -8 -4 6 -14 10 -22
10 -8 0 -14 8 -14 18 2 19 -7 22 -21 8 -24 -23 -104 -13 -89 11 3 5 -2 8 -12
7 -11 -2 -39 7 -63 19 -28 14 -66 22 -108 24 -61 2 -66 4 -102 44 -21 22 -47
44 -57 48 -14 5 -15 9 -5 15 9 6 3 12 -20 20 l-33 11 25 -27 c61 -66 69 -78
59 -81 -5 -2 -10 -8 -10 -13 0 -4 7 -6 15 -3 8 4 15 1 15 -6 0 -6 -9 -14 -20
-17 -11 -3 -20 -9 -20 -13 0 -12 44 -27 70 -24 17 3 21 1 11 -5 -11 -7 -10
-11 5 -20 17 -9 17 -12 4 -21 -8 -6 -26 -10 -40 -9 -45 2 -65 -1 -55 -9 6 -4
11 -15 13 -26 3 -18 3 -18 -16 0 -10 11 -25 28 -31 39 -9 15 -11 16 -7 3 3
-10 1 -18 -4 -18 -6 0 -10 -5 -10 -10 0 -6 6 -10 13 -8 13 3 17 -4 16 -29 0
-15 -2 -15 -9 2 -5 11 -9 14 -9 6 -1 -9 -8 -11 -22 -8 -25 7 -51 -2 -43 -14 3
-5 -2 -9 -10 -9 -8 0 -18 5 -21 10 -5 8 -11 7 -21 -1 -8 -6 -17 -9 -21 -5 -3
3 0 6 7 6 21 0 0 16 -37 28 -20 7 -33 7 -33 1 0 -8 14 -13 33 -10 4 0 7 -6 7
-15 0 -11 -8 -15 -30 -12 -19 2 -34 -3 -40 -12 -8 -12 -10 -12 -16 3 -3 9 -11
14 -16 11 -6 -4 -13 -3 -17 2 -11 16 -76 35 -79 24 -3 -7 -8 -7 -15 -2 -7 5
-23 13 -37 17 -21 5 -19 3 8 -15 28 -17 32 -23 21 -36 -9 -11 -14 -12 -19 -3
-5 7 -10 8 -14 1 -3 -6 6 -15 21 -20 l28 -10 -28 -7 c-15 -4 -38 -5 -52 -3
-13 3 -26 1 -27 -4 -2 -6 -47 -10 -101 -10 -56 0 -97 -4 -97 -10 0 -5 10 -7
23 -3 21 6 21 5 2 -7 -11 -7 -22 -13 -25 -13 -3 0 -10 -3 -16 -7 -6 -4 -11 -1
-11 7 0 8 5 11 11 8 6 -4 5 1 -2 10 -10 12 -31 16 -88 16 -48 0 -74 -4 -74
-11 0 -6 3 -9 6 -5 3 3 17 2 30 -3 13 -5 24 -6 24 -1 0 4 10 7 23 5 12 -1 30
-3 40 -3 9 -1 17 -6 17 -12 0 -5 -4 -8 -9 -4 -5 3 -12 1 -15 -3 -7 -12 -64
-13 -71 -1 -8 13 -45 11 -45 -2 0 -5 -4 -8 -9 -5 -5 3 -14 -1 -21 -9 -11 -13
-10 -14 6 -9 18 6 18 6 -1 -9 -11 -8 -23 -13 -27 -11 -5 3 -8 -4 -8 -16 0 -13
-5 -20 -12 -17 -7 2 -20 -4 -28 -13 -8 -9 -26 -21 -39 -25 -20 -6 -23 -5 -17
11 6 16 5 17 -11 2 -23 -20 -52 -31 -80 -32 -13 -1 -22 -5 -22 -9 0 -9 -61
-55 -111 -83 -64 -37 -70 -41 -64 -46 3 -3 -26 -34 -65 -69 -39 -34 -67 -67
-64 -72 4 -6 0 -8 -10 -4 -9 3 -19 2 -22 -3 -3 -4 1 -10 7 -13 8 -3 -4 -23
-33 -53 -39 -41 -83 -105 -134 -192 -6 -9 -27 -46 -48 -81 -38 -63 -87 -197
-87 -237 0 -11 -5 -25 -10 -30 -6 -6 -13 -33 -15 -60 -7 -78 -47 -227 -57
-212 -5 8 -7 -35 -4 -99 2 -62 0 -113 -5 -113 -5 0 -9 -15 -9 -32 l1 -33 14
30 15 30 -5 -30 c-4 -16 -8 -75 -11 -130 -7 -121 -40 -256 -69 -277 -6 -5 -6
-8 1 -8 7 0 10 -16 9 -40 -1 -22 1 -40 5 -40 4 0 7 -6 7 -12 -1 -7 2 -47 6
-88 5 -41 8 -79 8 -85 0 -5 6 -20 14 -32 19 -28 27 -64 30 -138 2 -33 8 -80
13 -105 5 -25 15 -74 21 -110 7 -36 16 -78 21 -93 5 -16 6 -83 3 -151 -5 -106
-3 -127 13 -161 10 -21 17 -47 17 -57 -1 -10 2 -16 8 -13 9 6 13 -27 9 -73 -1
-12 5 -25 14 -28 8 -3 18 -24 21 -47 4 -23 11 -46 15 -52 4 -5 22 -48 38 -95
17 -47 39 -105 50 -130 11 -25 23 -64 27 -87 6 -37 4 -44 -13 -50 -15 -6 -18
-13 -11 -30 5 -13 13 -23 20 -23 6 0 8 7 5 16 -3 9 -2 12 5 9 5 -4 9 -15 7
-25 -2 -10 18 -47 43 -82 48 -64 52 -75 50 -116 l-1 -23 -32 22 c-18 13 -39
30 -47 37 -8 8 -30 24 -50 37 -20 12 -42 30 -50 39 -21 25 -44 21 -38 -6 3
-13 11 -73 18 -135 8 -72 16 -110 23 -107 6 2 19 -10 29 -27 32 -58 112 -159
125 -159 16 0 16 57 0 62 -9 3 -8 10 5 22 9 10 15 21 12 26 -3 5 -1 11 4 14 8
5 28 -51 36 -104 11 -72 18 -101 41 -169 14 -41 32 -80 41 -86 9 -7 14 -19 11
-26 -7 -17 18 -56 29 -46 3 4 1 17 -5 30 -15 30 -40 165 -58 317 -3 19 -7 42
-10 52 -3 9 0 19 5 22 5 4 12 -3 16 -14 3 -11 11 -20 16 -20 6 0 8 -4 5 -9 -6
-9 10 -50 56 -151 34 -75 49 -102 104 -186 102 -156 221 -238 419 -290 55 -14
111 -33 125 -42 28 -18 60 -23 60 -10 0 4 -7 8 -15 8 -8 0 -15 5 -15 10 0 6
11 10 24 10 20 0 24 -6 30 -41 4 -27 11 -39 19 -36 6 3 20 8 30 12 9 4 17 3
17 -3 0 -6 32 -16 71 -23 54 -10 73 -17 77 -31 5 -19 27 -24 37 -8 3 6 -1 13
-9 16 -20 8 -21 24 -1 24 8 0 15 4 15 9 0 16 85 30 258 42 130 9 172 16 172
26 0 7 5 13 10 13 6 0 10 -7 10 -15 0 -21 28 -19 32 3 3 14 6 13 21 -9 16 -24
23 -58 26 -122 0 -16 5 -25 11 -22 5 3 9 20 8 38 -1 41 27 139 57 197 26 50
38 88 55 170 17 90 164 549 200 625 10 22 33 75 50 118 18 44 38 77 46 77 8 0
14 -3 14 -8 0 -4 9 -13 21 -20 14 -9 19 -10 14 -2 -15 24 32 -9 64 -45 17 -20
31 -31 31 -26 0 5 -7 17 -16 26 -22 21 -15 25 16 8 14 -7 20 -13 14 -13 -24 0
0 -57 41 -95 40 -38 43 -44 54 -125 14 -94 19 -109 32 -89 5 9 9 -10 9 -48 0
-45 4 -63 13 -63 19 0 91 -213 83 -245 -5 -20 -3 -25 13 -25 20 0 23 -11 51
-148 15 -77 15 -77 -38 -111 -26 -16 -65 -46 -87 -66 -58 -52 -157 -126 -180
-135 -11 -4 -60 -12 -110 -19 -49 -6 -154 -23 -232 -37 -78 -14 -146 -23 -152
-19 -6 3 -14 -1 -17 -9 -4 -10 11 -35 39 -68 l45 -53 166 -38 c92 -21 172 -35
178 -31 7 4 8 3 4 -5 -5 -7 4 -15 23 -22 17 -6 31 -18 31 -26 0 -9 10 -25 23
-36 15 -13 18 -21 10 -24 -27 -10 -11 -23 27 -23 27 0 43 5 46 15 4 8 10 15
15 15 4 0 6 -7 3 -15 -10 -24 5 -17 33 15 21 26 32 30 74 30 27 0 49 5 49 10
0 6 -5 10 -12 10 -6 0 -9 3 -5 6 3 3 18 -3 34 -13 41 -29 90 -46 109 -39 22 8
40 -4 23 -15 -11 -7 -10 -9 4 -9 9 0 17 -4 17 -10 0 -5 -9 -10 -21 -10 -11 0
-17 -4 -14 -10 10 -17 -46 -89 -94 -118 -106 -66 -141 -82 -163 -77 -13 3 -92
-6 -177 -20 -136 -23 -172 -26 -305 -21 -160 6 -296 23 -296 37 0 5 -15 1 -34
-8 -21 -10 -41 -13 -53 -8 -14 6 -15 9 -3 12 15 4 57 119 47 129 -12 12 -61
-11 -76 -37 -9 -16 -22 -29 -28 -29 -7 0 -13 -6 -13 -14 0 -8 -9 -18 -20 -21
-11 -4 -36 -27 -55 -52 -36 -48 -36 -45 8 -94 10 -12 16 -26 14 -33 -3 -7 6
-43 19 -82 25 -74 30 -119 14 -129 -14 -9 -12 -35 3 -35 7 0 39 19 70 42 40
30 56 47 52 59 -4 12 4 20 27 29 74 29 98 43 98 57 0 8 5 11 11 7 7 -4 9 0 5
12 -5 17 1 19 57 21 34 1 72 5 83 8 16 3 23 -1 27 -15 7 -28 25 -25 33 5 6 24
7 25 133 25 69 1 171 4 226 8 55 4 135 7 178 6 66 -1 79 1 88 17 8 15 18 18
57 14 26 -3 61 -9 77 -13 l30 -9 -32 -16 c-17 -9 -41 -29 -53 -44 -20 -26
-178 -108 -188 -98 -3 3 -11 -4 -19 -15 -10 -14 -19 -17 -36 -11 -12 4 -89 4
-172 0 -82 -4 -162 -8 -177 -8 -16 -1 -28 -6 -28 -12 0 -12 66 -42 95 -43 11
-1 19 -7 17 -15 -4 -17 17 -41 36 -41 8 0 21 -8 28 -17 11 -17 13 -16 23 10 6
15 16 27 22 27 9 0 8 -4 0 -14 -10 -11 -6 -17 18 -29 26 -13 31 -13 45 2 14
13 18 14 25 3 5 -9 23 -13 47 -11 53 4 67 -6 60 -42 -4 -21 -2 -29 9 -29 18 0
32 23 17 28 -21 7 -14 42 8 42 17 0 20 -6 18 -27 -2 -19 2 -28 15 -31 12 -2
17 3 17 20 0 17 3 19 9 9 7 -11 16 -8 47 13 39 26 39 26 54 6 14 -18 19 -19
48 -9 18 6 44 9 57 6 19 -3 25 0 25 13 0 14 7 15 50 10 50 -6 50 -6 58 24 7
24 14 31 33 31 21 0 25 7 33 47 6 32 15 48 28 51 12 3 18 14 18 32 0 22 3 25
21 20 18 -6 20 -4 14 14 -5 16 -3 20 9 15 11 -4 16 -1 16 10 0 9 4 16 10 16 5
0 7 6 4 14 -3 8 2 26 11 40 11 16 13 26 6 26 -19 0 -12 18 10 25 11 4 18 12
16 18 -2 7 9 27 24 45 16 18 29 39 29 47 0 8 11 17 25 21 14 3 25 8 25 10 0 1
7 29 15 61 14 53 14 61 -1 89 -12 22 -15 42 -10 67 8 40 12 42 84 28 23 -5 42
-4 42 0 0 21 -98 133 -131 150 -35 17 -233 71 -272 73 -13 1 -24 15 -33 41
-18 51 -17 58 2 51 11 -4 14 -1 10 12 -18 58 -23 101 -13 111 8 8 7 11 -2 11
-7 0 -9 5 -5 11 3 6 9 49 13 95 5 65 4 84 -6 84 -7 0 -13 6 -13 13 0 6 -3 22
-6 35 -6 19 -3 22 24 22 18 0 32 6 36 16 5 14 9 14 29 2 14 -9 38 -13 66 -10
38 4 43 2 38 -12 -5 -13 -2 -15 18 -10 15 4 32 1 42 -7 13 -11 17 -11 20 -1 5
13 55 17 67 5 4 -5 20 -8 34 -9 137 -4 174 -9 182 -25 9 -16 75 -18 120 -4 14
4 20 2 20 -9 0 -8 9 -20 20 -26 12 -6 19 -19 17 -33 -2 -20 4 -23 48 -27 50
-5 50 -5 51 -42 0 -20 7 -44 14 -53 12 -15 12 -19 -3 -30 -9 -6 -14 -15 -10
-18 3 -4 -1 -7 -10 -7 -9 0 -14 -6 -11 -13 3 -8 -7 -19 -22 -26 -20 -9 -24
-15 -16 -23 7 -7 12 -18 12 -25 0 -17 -27 -17 -33 0 -4 8 -6 7 -6 -4 -1 -8 8
-24 18 -36 22 -23 46 -126 35 -151 -4 -9 -6 -20 -6 -24 3 -12 -13 -9 -26 4
-14 14 -13 16 -16 -74 -2 -52 0 -65 11 -61 14 6 14 -22 -1 -46 -6 -9 -3 -18 9
-27 17 -13 17 -16 -5 -66 -12 -29 -40 -89 -62 -133 -33 -65 -38 -82 -29 -97 8
-13 8 -24 2 -36 -7 -11 -11 -12 -11 -4 0 7 -4 11 -9 8 -4 -3 -3 -24 2 -46 9
-34 8 -46 -6 -73 -15 -28 -16 -40 -6 -87 12 -55 8 -64 -35 -85 -8 -3 -7 -7 2
-11 18 -8 15 -22 -13 -52 -14 -15 -25 -21 -25 -14 0 19 -20 14 -20 -5 -1 -17
-2 -17 -13 -1 -12 15 -18 10 -55 -38 -23 -30 -42 -61 -42 -70 0 -12 -7 -14
-27 -10 -16 3 -33 3 -39 -2 -18 -12 -62 -95 -74 -139 -6 -24 -17 -43 -24 -43
-7 0 -28 -38 -46 -85 -37 -96 -71 -131 -190 -198 -36 -20 -94 -56 -130 -81
-36 -25 -81 -53 -100 -63 -19 -10 -37 -20 -40 -23 -12 -13 -105 -31 -108 -21
-2 6 -22 3 -51 -9 -40 -15 -64 -17 -150 -13 -56 3 -104 10 -107 14 -3 5 -13 9
-23 9 -11 0 -21 10 -25 23 -4 13 -9 18 -13 12 -12 -16 -53 -16 -53 0 0 9 -28
19 -80 31 -44 9 -77 21 -74 26 3 5 -7 19 -22 31 -16 12 -75 62 -132 111 -57
48 -132 103 -166 120 -37 19 -61 37 -58 45 2 7 -8 26 -24 42 -28 29 -54 38
-54 19 0 -6 -17 1 -37 15 -21 14 -53 32 -70 40 -24 11 -33 22 -33 40 0 14 -4
25 -10 25 -20 0 -9 15 31 43 22 15 45 38 51 52 6 14 18 25 27 25 13 1 12 4 -4
16 -11 8 -20 20 -20 27 0 7 -9 25 -19 40 -15 22 -24 27 -44 22 -13 -3 -30 -1
-37 5 -10 8 -16 7 -22 -5 -8 -14 -17 -10 -60 29 -37 33 -55 44 -71 39 -18 -4
-23 0 -28 24 -4 22 -20 39 -60 66 -31 20 -50 38 -44 42 8 5 8 11 1 19 -7 9 -7
16 0 23 8 8 7 13 -2 18 -7 5 -17 1 -24 -8 -10 -14 -14 -14 -34 6 -16 15 -25
18 -28 10 -5 -15 -33 -17 -33 -3 0 5 -8 7 -17 3 -16 -6 -16 -4 1 15 23 27 15
27 -49 3 -34 -13 -49 -24 -47 -35 4 -20 -15 -21 -34 -1 -21 21 -40 19 -23 -2
13 -15 11 -16 -16 -9 -39 10 -58 28 -80 77 -13 27 -22 36 -29 29 -18 -18 -28
-11 -22 15 5 20 3 25 -13 25 -15 0 -19 -5 -14 -17 14 -39 153 -282 198 -348
34 -49 44 -70 34 -73 -8 -3 -39 -30 -70 -62 -31 -32 -86 -74 -125 -95 -38 -21
-159 -88 -269 -150 -271 -152 -489 -267 -812 -428 -233 -116 -481 -252 -715
-393 -70 -42 -127 -112 -191 -234 -4 -8 -25 -42 -47 -75 -22 -33 -61 -98 -89
-145 -27 -47 -60 -103 -74 -125 -60 -97 -173 -327 -246 -500 -5 -11 -20 -47
-34 -80 -51 -119 -140 -426 -173 -590 -46 -232 -88 -542 -99 -735 -16 -282
-81 -677 -155 -945 -38 -139 -59 -219 -66 -260 -2 -11 -7 -37 -13 -57 -19 -79
3 -175 55 -243 l26 -35 4679 0 c2574 0 4679 3 4679 8 0 4 -18 113 -41 242
l-41 235 5 355 c4 330 6 366 31 505 31 177 39 210 51 209 5 -1 35 -39 67 -85
31 -46 68 -93 80 -104 13 -11 62 -63 108 -115 77 -86 316 -350 431 -475 265
-288 547 -605 634 -713 l50 -62 408 0 407 0 0 25 c0 14 -6 25 -12 25 -9 0 -8
4 2 10 12 8 10 10 -8 10 -13 0 -21 4 -17 9 3 5 1 12 -5 16 -13 8 -13 45 1 45
5 0 8 4 5 9 -4 5 3 7 14 4 14 -4 20 0 20 11 0 9 -7 16 -15 16 -8 0 -15 3 -15
8 0 4 -26 6 -58 6 -58 -2 -100 11 -115 33 -11 18 -28 16 -21 -2 4 -9 -3 -16
-20 -21 -32 -8 -33 -19 -3 -28 21 -7 21 -7 2 -16 -11 -5 -14 -9 -7 -9 6 -1 12
-8 12 -16 0 -8 15 -24 33 -35 17 -11 28 -20 24 -20 -5 0 -1 -7 7 -16 9 -8 16
-22 16 -30 0 -8 5 -14 10 -14 6 0 10 7 10 15 0 12 4 13 25 3 43 -20 27 -27
-55 -27 -44 0 -80 4 -80 7 0 4 -10 12 -22 17 -16 7 -23 18 -23 37 1 14 -3 24
-7 22 -4 -3 -8 4 -8 15 0 12 -5 21 -11 21 -6 0 -9 7 -6 15 4 8 2 17 -3 20 -6
4 -10 15 -10 26 0 13 -4 18 -12 13 -8 -5 -9 -2 -5 10 6 14 3 16 -13 11 -15 -5
-18 -3 -14 9 3 9 2 16 -3 16 -12 0 -33 -22 -33 -34 0 -6 5 -4 10 4 6 10 10 11
10 3 0 -7 7 -13 15 -13 8 0 15 -4 15 -9 0 -12 -61 5 -70 20 -4 6 -10 10 -14
10 -19 -3 -26 0 -26 11 0 9 3 9 11 1 9 -9 16 -8 27 3 11 11 12 18 3 27 -8 8
-11 8 -11 -1 0 -21 -18 -13 -23 10 l-4 23 -2 -23 c-1 -26 -21 -20 -21 6 0 33
-14 41 -53 33 -34 -8 -39 -6 -67 25 -33 39 -37 46 -16 38 17 -6 31 12 16 21
-5 3 -10 15 -10 27 0 16 -5 19 -21 15 -11 -3 -34 -1 -50 5 -23 8 -28 14 -23
30 5 17 3 19 -16 13 -15 -5 -20 -3 -16 3 8 13 -30 36 -44 27 -6 -3 -10 3 -10
15 0 14 -5 20 -17 18 -14 -2 -19 5 -21 28 -3 27 -6 30 -27 26 -19 -3 -25 1
-30 21 -4 13 -17 29 -30 35 -13 6 -25 21 -27 34 -2 13 -10 23 -18 23 -23 0
-100 58 -95 72 2 6 -7 19 -21 27 -13 9 -24 25 -24 36 0 23 -13 26 -29 6 -9
-11 -9 -15 1 -19 9 -4 8 -6 -3 -6 -8 -1 -31 20 -49 47 -19 26 -51 68 -72 93
-21 25 -38 50 -38 56 0 6 -13 13 -29 16 -23 5 -32 15 -46 50 -23 60 -62 107
-74 88 -13 -20 -25 -8 -65 63 -41 73 -53 85 -89 88 -14 1 -23 6 -21 10 3 5 -2
11 -10 14 -9 3 -16 11 -16 18 0 6 -20 23 -45 38 -31 19 -43 32 -39 43 8 20
-19 29 -45 15 -14 -7 -21 -7 -21 0 0 5 7 10 15 10 8 0 12 6 9 14 -3 8 -11 13
-18 10 -7 -3 -20 6 -29 20 -9 14 -41 52 -71 85 l-54 61 38 132 c69 243 70 246
118 305 239 295 275 332 527 534 96 77 409 279 432 279 2 0 17 8 31 18 15 11
79 40 142 66 63 26 129 54 145 61 90 40 152 58 312 90 97 19 185 35 195 35 17
0 18 14 18 252 l0 251 -147 150 c-193 195 -449 426 -593 537 -233 177 -494
330 -659 385 -89 29 -162 73 -209 126 -34 38 -29 37 -230 24 l-102 -7 -28 32
c-60 73 -111 117 -157 139 -27 13 -76 47 -108 77 -120 108 -322 225 -437 252
-25 6 -107 14 -183 18 l-138 7 -67 47 c-126 89 -199 114 -332 114 -97 1 -143
-12 -204 -59 -122 -93 -345 -107 -372 -23 -11 37 -61 105 -94 128 -46 33 -196
54 -280 40 -80 -13 -118 -25 -193 -58 l-58 -25 -57 17 c-57 18 -397 188 -419
209 -8 9 -4 48 17 159 31 156 55 348 65 517 l6 103 47 47 c65 63 91 122 98
224 3 45 9 107 14 137 5 30 12 91 15 135 3 44 10 109 15 145 5 36 12 142 14
235 3 94 10 226 16 295 13 151 -3 300 -41 376 -34 67 -88 87 -161 59 -14 -6
-18 -2 -18 18 0 14 6 32 14 40 8 8 17 36 21 63 4 27 14 76 22 109 10 38 17
112 18 200 2 102 5 139 14 137 9 -2 9 3 1 19 -15 27 -7 35 14 14 9 -9 16 -12
16 -7 0 5 -7 15 -15 22 -17 14 -20 67 -4 72 23 8 8 205 -17 224 -15 12 -20 44
-6 44 4 0 6 32 4 70 -3 39 -1 109 3 155 6 72 9 85 25 85 21 0 31 30 18 54 -6
11 -5 16 4 16 8 0 22 14 32 31 14 24 17 42 12 79 -4 27 -2 51 2 54 5 3 12 28
16 56 4 28 12 63 18 78 13 32 10 104 -4 113 -5 3 -6 18 -3 32 4 15 1 45 -8 69
-41 122 -41 126 11 150 l37 17 -46 -4 c-45 -5 -47 -4 -58 26 -14 40 -14 52 0
43 8 -4 8 0 0 15 -6 11 -20 25 -32 31 -11 6 -17 15 -14 19 3 5 -6 12 -20 15
-16 4 -22 11 -19 21 5 11 2 13 -9 9 -20 -7 -112 37 -96 47 16 9 52 -2 66 -20
6 -9 15 -13 19 -9 4 4 -7 21 -25 37 -17 16 -31 34 -31 40 0 6 -4 11 -10 11 -5
0 -10 5 -10 11 0 7 10 5 25 -5 34 -22 45 -20 45 8 0 14 5 28 10 31 11 7 8 57
-5 87 -3 9 -16 18 -27 21 -14 4 -19 11 -14 22 4 11 -4 21 -24 33 -36 20 -37
26 -7 40 21 11 21 11 -8 9 -25 -2 -30 2 -30 21 0 12 4 21 10 20 5 -2 8 -10 7
-18 -3 -10 0 -12 7 -5 6 6 13 26 17 45 4 24 3 31 -4 22 -14 -21 -24 28 -12 67
5 18 12 64 16 103 6 63 5 71 -9 65 -10 -4 -14 -2 -11 7 6 16 -13 69 -23 63 -5
-3 -9 13 -10 34 -1 30 -9 48 -37 76 -20 21 -36 33 -36 27 0 -5 4 -14 8 -20 14
-15 34 -89 31 -108 -4 -18 -16 1 -53 87 -19 41 -54 54 -41 15 4 -13 9 -39 11
-58 l4 -35 -15 40 c-9 22 -20 44 -25 49 -6 6 -10 16 -10 24 0 7 -13 33 -30 56
l-29 43 19 39 c24 46 19 66 -26 111 -30 30 -40 34 -106 38 -40 3 -74 9 -76 15
-2 5 -12 10 -22 10 -10 0 -25 8 -32 19 -7 10 -29 22 -48 26 -19 4 -44 14 -55
21 -60 39 -263 77 -325 61 -48 -12 -25 -25 50 -29 l65 -3 -74 -23 c-51 -16
-84 -33 -103 -54 -15 -17 -28 -27 -28 -22 0 4 -16 -14 -36 -39 -40 -51 -51
-60 -33 -24 6 12 8 19 4 14 -5 -4 -21 4 -35 18 -26 24 -28 25 -41 8 -13 -16
-12 -17 3 -5 12 10 18 10 24 1 9 -15 -31 -49 -58 -49 -11 0 -26 -7 -34 -15 -9
-8 -21 -15 -27 -15 -6 0 -1 7 11 16 19 13 21 18 10 32 -8 10 -9 13 -1 9 6 -4
14 -3 18 3 3 5 1 10 -6 10 -7 0 2 15 20 34 l33 34 -34 -3 c-18 -2 -36 -4 -39
-4 -4 -1 -9 -11 -13 -23 -3 -13 -26 -45 -52 -73 -25 -27 -43 -42 -40 -32 3 10
6 25 6 33 0 8 6 14 14 14 18 0 47 40 40 52 -3 5 -14 2 -24 -7 -12 -11 -20 -13
-25 -6 -4 8 -12 6 -22 -5 -15 -15 -18 -14 -34 8 -10 12 -19 18 -19 11 0 -6 5
-15 11 -19 8 -5 8 -9 -1 -14 -14 -9 -70 7 -70 19 0 4 -6 8 -13 8 -8 0 -14 -6
-14 -14 0 -7 6 -13 13 -13 20 0 25 -31 9 -56 -25 -39 -49 -46 -78 -24 -27 22
-37 17 -37 -17 0 -19 -5 -23 -30 -23 -34 0 -34 1 -18 46 13 36 37 52 48 33 5
-7 10 -8 14 -1 3 6 2 13 -4 17 -17 11 20 55 46 55 13 0 24 5 24 10 0 6 -3 10
-8 10 -4 0 -13 9 -19 20 -11 17 -7 25 37 71 39 40 50 48 50 33 0 -11 -4 -24
-9 -29 -5 -6 -2 -17 9 -28 17 -17 18 -17 24 18 4 20 4 45 1 56 -5 15 7 32 49
72 66 62 88 76 141 93 31 10 34 13 15 13 -14 0 -40 -6 -59 -14z m459 -279 c0
-2 -7 -6 -15 -10 -8 -3 -15 -1 -15 4 0 6 7 10 15 10 8 0 15 -2 15 -4z m-60
-21 c0 -2 -14 -12 -31 -21 -23 -12 -30 -12 -27 -3 3 8 15 16 29 20 13 4 25 7
27 8 1 1 2 -1 2 -4z m-917 -68 c-8 -12 18 -38 31 -30 6 4 6 0 -2 -9 -7 -9 -11
-20 -10 -24 3 -9 -5 -14 -22 -14 -7 0 -7 6 0 20 6 11 7 20 1 20 -5 0 -16 -16
-25 -35 -36 -75 -43 1 -9 84 13 31 15 32 28 15 7 -10 11 -22 8 -27z m417 -1
c0 -3 -4 -8 -10 -11 -5 -3 -10 -1 -10 4 0 6 5 11 10 11 6 0 10 -2 10 -4z m239
-29 c-2 -1 -13 -9 -24 -17 -19 -14 -19 -14 -6 3 7 9 18 17 24 17 6 0 8 -1 6
-3z m-1404 -77 c3 -5 2 -10 -4 -10 -5 0 -13 5 -16 10 -3 6 -2 10 4 10 5 0 13
-4 16 -10z m62 -5 c5 -4 3 -5 -3 -2 -7 4 -14 0 -18 -8 -8 -22 -25 -18 -23 5 1
19 28 23 44 5z m-7 -31 c0 -8 -5 -12 -10 -9 -6 4 -8 11 -5 16 9 14 15 11 15
-7z m520 -5 c0 -6 9 -8 23 -4 16 4 18 3 7 -4 -16 -9 -43 -14 -72 -12 -27 2
-10 31 18 31 13 0 24 -5 24 -11z m1685 -79 c3 -5 -1 -10 -10 -10 -9 0 -13 5
-10 10 3 6 8 10 10 10 2 0 7 -4 10 -10z m-48 -52 c-3 -8 -6 -5 -6 6 -1 11 2
17 5 13 3 -3 4 -12 1 -19z m71 -11 c4 -31 -5 -35 -24 -9 -19 24 -17 44 4 40
10 -2 18 -14 20 -31z m120 -2 c-3 -3 -9 2 -12 12 -6 14 -5 15 5 6 7 -7 10 -15
7 -18z m-178 -44 c0 -5 -6 -11 -12 -14 -18 -6 -39 3 -32 14 7 12 44 12 44 0z
m10 -31 c13 -8 12 -11 -5 -25 -19 -14 -19 -15 -1 -8 13 4 17 3 12 -5 -6 -10
-18 -10 -56 -2 -3 0 3 5 12 11 10 5 15 16 12 24 -7 17 4 19 26 5z m-80 -51 c0
-5 -4 -9 -10 -9 -5 0 -10 7 -10 16 0 8 5 12 10 9 6 -3 10 -10 10 -16z m105 -9
c-3 -5 -12 -10 -18 -10 -7 0 -6 4 3 10 19 12 23 12 15 0z m262 -12 c-3 -8 -6
-5 -6 6 -1 11 2 17 5 13 3 -3 4 -12 1 -19z m0 -40 c-3 -8 -6 -5 -6 6 -1 11 2
17 5 13 3 -3 4 -12 1 -19z m-287 -63 c-7 -9 -15 -13 -17 -11 -7 7 7 26 19 26
6 0 6 -6 -2 -15z m25 -35 c-3 -5 -13 -10 -21 -10 -8 0 -12 5 -9 10 3 6 13 10
21 10 8 0 12 -4 9 -10z m35 -24 c0 -3 -4 -8 -10 -11 -5 -3 -10 -1 -10 4 0 6 5
11 10 11 6 0 10 -2 10 -4z m-360 -36 c-8 -5 -17 -7 -19 -4 -3 3 1 9 9 14 8 5
17 7 19 4 3 -3 -1 -9 -9 -14z m301 -5 c1 -17 -18 -17 -25 0 -4 11 -1 15 10 13
8 -2 15 -7 15 -13z m-1 -55 c0 -5 -4 -10 -10 -10 -5 0 -10 5 -10 10 0 6 5 10
10 10 6 0 10 -4 10 -10z m87 -62 c-3 -8 -6 -5 -6 6 -1 11 2 17 5 13 3 -3 4
-12 1 -19z m203 -294 c0 -2 -11 -4 -25 -4 -14 0 -25 4 -25 9 0 4 11 6 25 3 14
-2 25 -6 25 -8z m-4518 -346 c-8 -8 -9 -4 -5 13 4 13 8 18 11 10 2 -7 -1 -18
-6 -23z m-33 -237 c-6 -34 -16 -64 -20 -67 -12 -7 -12 -3 7 72 21 81 30 77 13
-5z m2598 -18 c2 -6 -5 -14 -16 -18 -12 -3 -21 -11 -21 -16 0 -5 10 -4 23 3
24 13 87 38 99 38 4 0 5 -6 2 -13 -3 -9 10 -12 51 -12 31 1 72 -5 93 -13 20
-8 86 -25 146 -38 102 -22 112 -23 134 -8 32 21 82 13 133 -21 21 -14 43 -25
49 -25 5 0 10 -5 10 -11 0 -19 110 -163 127 -165 23 -4 30 -14 47 -71 14 -49
13 -57 -6 -54 -18 3 -6 -16 21 -32 28 -16 29 -19 18 -55 -6 -20 -16 -44 -23
-52 -8 -10 -10 -21 -4 -29 4 -8 6 -20 4 -26 -3 -7 4 -15 15 -18 14 -3 21 0 21
9 0 8 5 14 11 14 8 0 10 -12 6 -35 -5 -32 -4 -35 18 -35 13 0 26 6 29 13 5 9
7 9 12 0 3 -8 16 -10 33 -7 16 3 32 1 35 -5 7 -11 -18 -67 -33 -73 -5 -1 -7
-15 -4 -29 3 -18 16 -31 44 -43 25 -11 39 -24 39 -36 0 -17 -4 -16 -47 8 -33
18 -44 21 -34 9 7 -9 11 -26 8 -37 -6 -23 11 -27 19 -5 8 19 23 19 31 0 3 -9
-3 -22 -13 -31 -18 -14 -18 -15 5 -8 20 5 23 3 17 -11 -3 -9 -8 -28 -11 -41
-3 -13 -7 -35 -10 -48 -3 -17 0 -25 13 -29 9 -2 25 -8 36 -12 15 -7 17 -5 11
13 -5 16 -2 22 9 22 10 0 16 -9 16 -25 0 -14 4 -33 9 -43 5 -9 19 -40 31 -69
24 -55 44 -71 66 -52 16 13 16 19 14 -99 -1 -75 2 -93 14 -98 9 -3 16 -10 16
-16 0 -5 -4 -6 -10 -3 -15 9 -12 -7 9 -47 12 -25 21 -34 28 -27 7 7 13 7 17 0
4 -6 2 -11 -3 -11 -6 0 -11 -4 -11 -10 0 -5 8 -7 18 -3 9 3 14 3 10 -1 -3 -4
-21 -10 -40 -13 -102 -15 -364 -67 -429 -84 -41 -11 -80 -19 -85 -18 -23 6
-319 -92 -544 -181 -30 -12 -68 -25 -85 -30 -16 -4 -112 -31 -213 -59 l-183
-52 -127 5 c-136 7 -256 13 -392 21 -235 14 -299 15 -470 6 -292 -15 -622 -64
-890 -131 -46 -11 -206 -47 -249 -56 -21 -4 -31 -3 -27 4 3 5 36 15 73 22 84
14 103 25 103 55 0 58 43 183 65 191 12 5 13 9 3 21 -8 10 -8 17 -1 21 9 6 43
76 43 89 0 2 -6 1 -12 -3 -7 -4 -6 1 3 12 27 32 31 68 9 82 -18 11 -18 14 -5
46 17 40 19 60 6 52 -5 -3 -11 14 -12 38 -2 24 -2 43 1 41 3 -2 12 1 20 6 11
8 12 12 3 16 -9 3 -7 15 8 46 17 32 19 45 10 58 -6 10 -7 21 -2 24 5 3 7 14 4
24 -3 12 5 33 20 53 41 55 42 60 13 52 -16 -4 -26 -2 -26 5 0 6 6 11 14 11 8
0 18 14 21 31 9 40 62 140 83 157 14 10 14 16 4 32 -8 13 -8 21 -1 26 6 3 8
12 5 20 -3 8 6 49 19 92 14 42 25 85 25 94 0 10 10 20 25 24 16 4 35 24 56 60
17 30 34 52 39 49 4 -3 32 23 61 57 74 86 182 202 191 206 5 2 8 -8 8 -22 0
-14 3 -26 8 -25 11 0 55 60 55 75 0 7 4 11 8 8 10 -6 59 17 59 28 0 4 5 8 11
8 7 0 54 21 106 46 88 44 96 46 136 36 23 -6 44 -9 46 -6 3 3 -5 7 -17 11 -12
3 -19 9 -16 14 7 13 204 12 204 -1 0 -18 36 -10 94 21 60 33 88 31 47 -2 -13
-11 -22 -22 -19 -24 3 -3 13 4 23 15 21 24 40 26 31 5 -8 -23 -1 -19 66 35 34
28 66 50 70 50 4 0 8 -9 8 -20 0 -36 70 -34 176 7 14 5 16 3 11 -11 -4 -11 -3
-15 4 -10 6 4 15 1 19 -7 7 -10 17 -7 48 14 22 16 46 25 55 22 9 -4 24 2 36
14 26 26 34 27 26 1 -8 -25 3 -25 35 0 30 23 44 25 36 5 -8 -22 4 -18 49 15
41 29 65 34 72 13z m1760 -1539 c-3 -3 -12 -4 -19 -1 -8 3 -5 6 6 6 11 1 17
-2 13 -5z m60 0 c-3 -3 -12 -4 -19 -1 -8 3 -5 6 6 6 11 1 17 -2 13 -5z m-40
-273 c20 -22 22 -23 18 -6 -3 11 2 5 10 -14 21 -45 11 -53 -67 -56 -67 -2
-476 -60 -518 -74 l-25 -8 34 -17 c20 -11 36 -14 40 -8 3 5 53 12 111 14 58 3
124 11 146 18 40 12 45 11 150 -39 164 -77 159 -73 162 -108 3 -31 3 -31 -48
-34 -28 -2 -55 0 -60 5 -12 12 -82 14 -96 4 -6 -5 -23 -4 -38 2 -17 6 -26 6
-26 0 0 -6 5 -10 12 -10 6 0 8 -3 4 -7 -4 -5 -13 -1 -19 7 -7 9 -23 16 -37 16
-14 0 -42 6 -63 13 -37 13 -39 12 -70 -21 -18 -19 -23 -23 -12 -9 14 17 16 23
5 19 -8 -4 -58 -23 -110 -43 -52 -20 -102 -39 -112 -40 -19 -4 -108 80 -108
102 0 28 -40 92 -62 99 -12 3 -28 13 -36 20 -7 8 -22 14 -31 14 -10 0 -24 7
-31 15 -11 13 -8 14 16 9 31 -6 369 59 549 106 61 15 123 31 138 34 15 4 26
10 23 14 -3 5 8 6 24 4 15 -2 36 0 46 6 24 13 54 3 81 -27z m-957 -71 c0 -5
-2 -10 -4 -10 -3 0 -8 5 -11 10 -3 6 -1 10 4 10 6 0 11 -4 11 -10z m51 -37
c13 -16 12 -17 -3 -4 -10 7 -18 15 -18 17 0 8 8 3 21 -13z m984 -63 c-3 -5
-12 -10 -18 -10 -7 0 -6 4 3 10 19 12 23 12 15 0z m-25 -39 c0 -6 -4 -12 -8
-15 -5 -3 -9 1 -9 9 0 8 4 15 9 15 4 0 8 -4 8 -9z m-342 -136 c-3 -3 -9 2 -12
12 -6 14 -5 15 5 6 7 -7 10 -15 7 -18z m-148 -40 c-7 -8 -17 -15 -22 -15 -11
0 14 29 26 30 5 0 3 -7 -4 -15z m250 -119 c0 -2 -7 -7 -16 -10 -8 -3 -12 -2
-9 4 6 10 25 14 25 6z m-1617 -131 c-7 -21 -12 -19 -10 4 0 11 5 18 9 15 4 -3
5 -11 1 -19z m1702 -424 c-3 -6 -11 -11 -17 -11 -6 0 -6 6 2 15 14 17 26 13
15 -4z m-427 -198 c-10 -2 -26 -2 -35 0 -10 3 -2 5 17 5 19 0 27 -2 18 -5z
m-75 -10 c-7 -2 -19 -2 -25 0 -7 3 -2 5 12 5 14 0 19 -2 13 -5z m-2833 -253
c22 -11 47 -20 58 -20 10 0 22 -4 28 -9 5 -5 18 -12 29 -15 11 -3 3 -3 -18 0
-48 6 -147 44 -147 55 0 13 6 11 50 -11z m610 -2152 c0 -19 -2 -20 -10 -8 -13
19 -13 30 0 30 6 0 10 -10 10 -22z m7 -70 c-3 -7 -5 -2 -5 12 0 14 2 19 5 13
2 -7 2 -19 0 -25z m36 -145 c8 -31 17 -48 27 -48 8 0 26 -23 39 -52 13 -29 30
-53 37 -53 7 0 15 -14 19 -30 4 -17 20 -40 36 -52 38 -28 37 -39 -3 -32 l-33
6 21 -19 c23 -19 69 -102 61 -109 -7 -8 -97 95 -97 111 0 8 -7 15 -16 15 -11
0 -13 6 -9 19 4 13 -11 50 -45 110 -42 73 -52 100 -55 148 -5 63 0 60 18 -14z
m2124 -1315 c-50 -66 -106 -116 -169 -152 -34 -20 -83 -50 -108 -66 -51 -32
-70 -37 -70 -15 0 8 -4 15 -9 15 -5 0 -11 -7 -15 -15 -3 -8 -15 -15 -26 -15
-30 0 -62 19 -54 32 10 16 -18 28 -39 16 -15 -8 -18 -7 -15 4 3 8 28 16 64 20
32 4 66 9 74 11 49 14 60 21 60 41 0 17 11 25 49 39 27 9 61 17 77 17 15 0 25
3 21 6 -11 12 21 33 63 43 24 5 46 15 50 22 4 6 12 9 17 6 6 -4 19 2 29 12 29
28 30 15 1 -21z m5543 -2794 c0 -2 -7 -4 -15 -4 -8 0 -15 4 -15 10 0 5 7 7 15
4 8 -4 15 -8 15 -10z m248 -24 c6 0 12 -7 12 -16 0 -10 -6 -14 -15 -10 -8 3
-15 1 -15 -4 0 -6 -7 -10 -16 -10 -8 0 -12 5 -9 10 3 6 0 10 -8 10 -14 0 -30
34 -20 43 2 3 16 -1 31 -9 15 -8 33 -14 40 -14z m-188 -90 c0 -5 -4 -10 -10
-10 -5 0 -10 5 -10 10 0 6 5 10 10 10 6 0 10 -4 10 -10z"/>
<path d="M6497 11913 c-2 -10 -8 -27 -12 -38 -6 -17 -4 -17 14 4 22 24 28 51
12 51 -5 0 -11 -8 -14 -17z"/>
<path d="M7348 11893 c7 -3 16 -2 19 1 4 3 -2 6 -13 5 -11 0 -14 -3 -6 -6z"/>
<path d="M7298 11845 c-44 -12 -104 -45 -82 -45 16 0 128 41 139 51 11 11 4
10 -57 -6z"/>
<path d="M7177 11781 c-9 -16 -17 -32 -17 -35 0 -12 29 -6 44 10 20 19 21 38
2 31 -10 -4 -13 -1 -9 9 9 24 -2 16 -20 -15z"/>
<path d="M5390 11764 c0 -6 16 -25 35 -44 19 -19 35 -29 35 -24 0 6 -16 25
-35 44 -19 19 -35 29 -35 24z"/>
<path d="M7113 11717 c-24 -11 -31 -27 -12 -27 6 0 8 -7 5 -16 -3 -9 -2 -12 5
-9 10 7 32 56 27 60 -2 1 -13 -2 -25 -8z"/>
<path d="M5965 11689 c-16 -16 -24 -29 -17 -29 6 0 12 5 12 10 0 6 6 10 13 10
7 0 18 9 25 20 17 28 2 23 -33 -11z"/>
<path d="M6745 11700 c-10 -11 -13 -20 -8 -20 13 0 38 29 31 35 -3 3 -13 -4
-23 -15z"/>
<path d="M7195 11660 c3 -5 11 -10 16 -10 6 0 7 5 4 10 -3 6 -11 10 -16 10 -6
0 -7 -4 -4 -10z"/>
<path d="M5925 11640 c-3 -6 1 -7 9 -4 18 7 21 14 7 14 -6 0 -13 -4 -16 -10z"/>
<path d="M7169 11633 c-13 -16 -12 -17 4 -4 16 13 21 21 13 21 -2 0 -10 -8
-17 -17z"/>
<path d="M5800 11620 c0 -5 5 -10 10 -10 6 0 10 5 10 10 0 6 -4 10 -10 10 -5
0 -10 -4 -10 -10z"/>
<path d="M5840 11610 c0 -5 5 -10 11 -10 5 0 7 5 4 10 -3 6 -8 10 -11 10 -2 0
-4 -4 -4 -10z"/>
<path d="M5895 11580 c-3 -5 -1 -10 4 -10 6 0 11 5 11 10 0 6 -2 10 -4 10 -3
0 -8 -4 -11 -10z"/>
<path d="M5930 11571 c0 -6 4 -13 10 -16 6 -3 7 1 4 9 -7 18 -14 21 -14 7z"/>
<path d="M6076 11555 c-16 -12 -17 -15 -4 -15 9 0 18 7 22 15 7 18 6 18 -18 0z"/>
<path d="M6026 11547 c3 -10 9 -15 12 -12 3 3 0 11 -7 18 -10 9 -11 8 -5 -6z"/>
<path d="M6715 11550 c-3 -6 1 -7 9 -4 18 7 21 14 7 14 -6 0 -13 -4 -16 -10z"/>
<path d="M5974 11534 c3 -9 6 -18 6 -21 0 -3 7 0 15 7 21 18 19 30 -6 30 -15
0 -19 -4 -15 -16z"/>
<path d="M5446 11524 c-11 -8 -27 -14 -37 -14 -9 0 -19 -6 -22 -14 -7 -18 39
-16 73 4 14 8 31 14 39 15 8 0 16 5 18 10 5 16 -50 15 -71 -1z m-6 -24 c0 -5
-5 -10 -11 -10 -5 0 -7 5 -4 10 3 6 8 10 11 10 2 0 4 -4 4 -10z"/>
<path d="M5298 11483 c6 -2 10 -9 6 -14 -13 -22 9 -28 27 -7 17 19 22 20 29 8
8 -13 10 -12 10 3 0 14 -8 17 -42 16 -24 0 -37 -3 -30 -6z"/>
<path d="M4970 11470 c-9 -6 -10 -10 -3 -10 6 0 15 5 18 10 8 12 4 12 -15 0z"/>
<path d="M5003 11455 c0 -7 9 -17 19 -24 10 -6 18 -7 18 -2 0 5 -6 11 -12 14
-7 2 -10 8 -6 12 4 4 19 0 32 -9 22 -14 25 -14 20 -1 -7 17 -8 17 -45 20 -14
1 -26 -3 -26 -10z"/>
<path d="M5249 11454 c-8 -10 -23 -14 -40 -12 -20 3 -29 0 -32 -14 -3 -10 -1
-21 4 -24 5 -3 9 2 9 11 0 11 6 14 25 9 19 -5 31 -1 45 16 11 13 20 25 20 27
0 9 -19 1 -31 -13z"/>
<path d="M5118 11443 c7 -3 16 -2 19 1 4 3 -2 6 -13 5 -11 0 -14 -3 -6 -6z"/>
<path d="M5423 11420 c-13 -5 -23 -11 -23 -14 0 -7 40 6 46 15 6 10 6 10 -23
-1z"/>
<path d="M5210 11393 c0 -9 3 -13 7 -10 3 4 12 2 20 -4 16 -14 17 3 1 19 -17
17 -28 15 -28 -5z"/>
<path d="M4948 11323 c7 -3 16 -2 19 1 4 3 -2 6 -13 5 -11 0 -14 -3 -6 -6z"/>
<path d="M4550 11260 c0 -5 5 -10 10 -10 6 0 10 5 10 10 0 6 -4 10 -10 10 -5
0 -10 -4 -10 -10z"/>
<path d="M4502 11189 c-7 -10 -8 -19 -3 -19 13 0 33 28 23 33 -4 3 -13 -3 -20
-14z"/>
<path d="M8438 10403 c6 -2 18 -2 25 0 6 3 1 5 -13 5 -14 0 -19 -2 -12 -5z"/>
<path d="M4220 6665 c-1 -5 -1 -22 0 -37 2 -35 -9 -35 -44 -3 -35 33 -55 22
-24 -14 56 -64 59 -65 65 -42 6 25 23 18 23 -11 0 -11 11 -42 25 -70 14 -27
25 -60 25 -72 0 -12 8 -31 18 -42 10 -10 16 -27 14 -36 -5 -26 15 -22 21 4 4
13 0 29 -8 38 -8 9 -15 22 -15 28 0 7 -4 12 -8 12 -8 0 -10 7 -13 48 -1 9 -8
24 -15 32 -7 9 -20 40 -28 70 -17 65 -34 109 -36 95z"/>
<path d="M4835 6417 c-17 -13 -17 -14 4 -20 24 -6 33 3 22 21 -5 9 -11 9 -26
-1z"/>
<path d="M4347 6323 c-7 -12 4 -73 14 -73 14 0 20 18 8 25 -6 4 -8 18 -5 31 6
22 -7 34 -17 17z"/>
<path d="M4285 6160 c3 -5 8 -10 11 -10 2 0 4 5 4 10 0 6 -5 10 -11 10 -5 0
-7 -4 -4 -10z"/>
<path d="M4326 6141 c-8 -12 71 -67 82 -57 4 4 -1 12 -11 17 -22 13 -22 30 1
23 13 -4 14 -3 4 4 -8 5 -23 9 -35 8 -12 -1 -25 2 -28 7 -4 5 -9 4 -13 -2z"/>
<path d="M6480 5930 c20 -13 33 -13 25 0 -3 6 -14 10 -23 10 -15 0 -15 -2 -2
-10z"/>
<path d="M5638 5791 c-4 -28 -3 -30 10 -18 10 11 11 20 4 32 -8 15 -10 13 -14
-14z"/>
<path d="M5745 5249 c-10 -15 3 -25 16 -12 7 7 7 13 1 17 -6 3 -14 1 -17 -5z"/>
<path d="M12712 341 c-9 -5 -3 -8 17 -9 17 0 31 4 31 9 0 11 -30 12 -48 0z"/>
<path d="M12998 288 c-20 -20 -14 -28 24 -28 33 0 34 4 11 28 -17 16 -19 16
-35 0z"/>
<path d="M13101 254 c0 -11 3 -14 6 -6 3 7 2 16 -1 19 -3 4 -6 -2 -5 -13z"/>
<path d="M13200 236 c0 -18 17 -29 30 -21 8 5 7 11 -1 21 -15 18 -29 18 -29 0z"/>
<path d="M13268 233 c7 -3 16 -2 19 1 4 3 -2 6 -13 5 -11 0 -14 -3 -6 -6z"/>
</g>
</svg>
